<mxfile host="app.diagrams.net" modified="2021-10-28T14:23:30.257Z" agent="5.0 (Macintosh; Intel Mac OS X 10_15_7) AppleWebKit/537.36 (KHTML, like Gecko) Chrome/94.0.4606.81 Safari/537.36" etag="YYHt66jGWgV0f0TnqMo7" version="15.5.9" type="github">
  <diagram id="qq-SHExF79bs8Gfk2bVS" name="Page-1">
    <mxGraphModel dx="1006" dy="642" grid="1" gridSize="10" guides="1" tooltips="1" connect="1" arrows="1" fold="1" page="1" pageScale="1" pageWidth="1169" pageHeight="1654" math="0" shadow="0">
      <root>
        <mxCell id="0" />
        <mxCell id="1" parent="0" />
        <mxCell id="hsobSIiCQKA7zttu_Q0H-18" value="" style="edgeStyle=orthogonalEdgeStyle;rounded=0;orthogonalLoop=1;jettySize=auto;html=1;shape=link;" edge="1" parent="1" source="hsobSIiCQKA7zttu_Q0H-1" target="hsobSIiCQKA7zttu_Q0H-16">
          <mxGeometry relative="1" as="geometry" />
        </mxCell>
        <mxCell id="hsobSIiCQKA7zttu_Q0H-1" value="Students" style="rounded=1;arcSize=10;whiteSpace=wrap;html=1;align=center;" vertex="1" parent="1">
          <mxGeometry x="135" y="175" width="100" height="40" as="geometry" />
        </mxCell>
        <mxCell id="hsobSIiCQKA7zttu_Q0H-23" value="" style="edgeStyle=orthogonalEdgeStyle;rounded=0;orthogonalLoop=1;jettySize=auto;html=1;" edge="1" parent="1" source="hsobSIiCQKA7zttu_Q0H-3" target="hsobSIiCQKA7zttu_Q0H-9">
          <mxGeometry relative="1" as="geometry" />
        </mxCell>
        <mxCell id="hsobSIiCQKA7zttu_Q0H-3" value="Clubs" style="rounded=1;arcSize=10;whiteSpace=wrap;html=1;align=center;" vertex="1" parent="1">
          <mxGeometry x="400" y="175" width="100" height="40" as="geometry" />
        </mxCell>
        <mxCell id="hsobSIiCQKA7zttu_Q0H-24" value="" style="edgeStyle=orthogonalEdgeStyle;rounded=0;orthogonalLoop=1;jettySize=auto;html=1;" edge="1" parent="1" source="hsobSIiCQKA7zttu_Q0H-5" target="hsobSIiCQKA7zttu_Q0H-9">
          <mxGeometry relative="1" as="geometry" />
        </mxCell>
        <mxCell id="hsobSIiCQKA7zttu_Q0H-5" value="Instructors" style="rounded=1;arcSize=10;whiteSpace=wrap;html=1;align=center;" vertex="1" parent="1">
          <mxGeometry x="684.5" y="175" width="100" height="40" as="geometry" />
        </mxCell>
        <mxCell id="hsobSIiCQKA7zttu_Q0H-7" value="" style="edgeStyle=orthogonalEdgeStyle;rounded=0;orthogonalLoop=1;jettySize=auto;html=1;shape=link;" edge="1" parent="1" source="hsobSIiCQKA7zttu_Q0H-6" target="hsobSIiCQKA7zttu_Q0H-1">
          <mxGeometry relative="1" as="geometry" />
        </mxCell>
        <mxCell id="hsobSIiCQKA7zttu_Q0H-8" value="" style="edgeStyle=orthogonalEdgeStyle;rounded=0;orthogonalLoop=1;jettySize=auto;html=1;shape=link;" edge="1" parent="1" source="hsobSIiCQKA7zttu_Q0H-6" target="hsobSIiCQKA7zttu_Q0H-3">
          <mxGeometry relative="1" as="geometry" />
        </mxCell>
        <mxCell id="hsobSIiCQKA7zttu_Q0H-6" value="enrollment" style="shape=rhombus;perimeter=rhombusPerimeter;whiteSpace=wrap;html=1;align=center;" vertex="1" parent="1">
          <mxGeometry x="275" y="175" width="90" height="40" as="geometry" />
        </mxCell>
        <mxCell id="hsobSIiCQKA7zttu_Q0H-9" value="instructorsClub" style="shape=rhombus;perimeter=rhombusPerimeter;whiteSpace=wrap;html=1;align=center;" vertex="1" parent="1">
          <mxGeometry x="540" y="170" width="100" height="50" as="geometry" />
        </mxCell>
        <mxCell id="hsobSIiCQKA7zttu_Q0H-14" value="" style="edgeStyle=orthogonalEdgeStyle;rounded=0;orthogonalLoop=1;jettySize=auto;html=1;shape=link;" edge="1" parent="1" source="hsobSIiCQKA7zttu_Q0H-12" target="hsobSIiCQKA7zttu_Q0H-3">
          <mxGeometry relative="1" as="geometry" />
        </mxCell>
        <mxCell id="hsobSIiCQKA7zttu_Q0H-12" value="interestsClubs" style="shape=rhombus;perimeter=rhombusPerimeter;whiteSpace=wrap;html=1;align=center;direction=south;" vertex="1" parent="1">
          <mxGeometry x="400" y="275" width="100" height="80" as="geometry" />
        </mxCell>
        <mxCell id="hsobSIiCQKA7zttu_Q0H-15" value="" style="edgeStyle=orthogonalEdgeStyle;rounded=0;orthogonalLoop=1;jettySize=auto;html=1;shape=link;" edge="1" parent="1" source="hsobSIiCQKA7zttu_Q0H-13" target="hsobSIiCQKA7zttu_Q0H-12">
          <mxGeometry relative="1" as="geometry" />
        </mxCell>
        <mxCell id="hsobSIiCQKA7zttu_Q0H-13" value="Interests" style="rounded=1;arcSize=10;whiteSpace=wrap;html=1;align=center;" vertex="1" parent="1">
          <mxGeometry x="270" y="295" width="100" height="40" as="geometry" />
        </mxCell>
        <mxCell id="hsobSIiCQKA7zttu_Q0H-17" value="" style="edgeStyle=orthogonalEdgeStyle;rounded=0;orthogonalLoop=1;jettySize=auto;html=1;shape=link;" edge="1" parent="1" source="hsobSIiCQKA7zttu_Q0H-16" target="hsobSIiCQKA7zttu_Q0H-13">
          <mxGeometry relative="1" as="geometry" />
        </mxCell>
        <mxCell id="hsobSIiCQKA7zttu_Q0H-16" value="studentsInterests" style="shape=rhombus;perimeter=rhombusPerimeter;whiteSpace=wrap;html=1;align=center;" vertex="1" parent="1">
          <mxGeometry x="130" y="280" width="110" height="70" as="geometry" />
        </mxCell>
        <mxCell id="hsobSIiCQKA7zttu_Q0H-19" value="&lt;u&gt;email&lt;/u&gt;" style="ellipse;whiteSpace=wrap;html=1;align=center;" vertex="1" parent="1">
          <mxGeometry x="650" y="245" width="80" height="30" as="geometry" />
        </mxCell>
        <mxCell id="hsobSIiCQKA7zttu_Q0H-21" value="profession" style="ellipse;whiteSpace=wrap;html=1;align=center;" vertex="1" parent="1">
          <mxGeometry x="820" y="175" width="100" height="40" as="geometry" />
        </mxCell>
        <mxCell id="hsobSIiCQKA7zttu_Q0H-22" value="" style="endArrow=none;html=1;rounded=0;" edge="1" parent="1">
          <mxGeometry relative="1" as="geometry">
            <mxPoint x="784.5" y="194.5" as="sourcePoint" />
            <mxPoint x="820" y="195" as="targetPoint" />
          </mxGeometry>
        </mxCell>
        <mxCell id="hsobSIiCQKA7zttu_Q0H-26" value="" style="line;strokeWidth=1;rotatable=0;dashed=0;labelPosition=right;align=left;verticalAlign=middle;spacingTop=0;spacingLeft=6;points=[];portConstraint=eastwest;direction=south;" vertex="1" parent="1">
          <mxGeometry x="685" y="210" width="10" height="35" as="geometry" />
        </mxCell>
        <mxCell id="hsobSIiCQKA7zttu_Q0H-27" value="" style="line;strokeWidth=1;rotatable=0;dashed=0;labelPosition=right;align=left;verticalAlign=middle;spacingTop=0;spacingLeft=6;points=[];portConstraint=eastwest;direction=south;" vertex="1" parent="1">
          <mxGeometry x="705" y="140" width="10" height="35" as="geometry" />
        </mxCell>
        <mxCell id="hsobSIiCQKA7zttu_Q0H-28" value="" style="line;strokeWidth=1;rotatable=0;dashed=0;labelPosition=right;align=left;verticalAlign=middle;spacingTop=0;spacingLeft=6;points=[];portConstraint=eastwest;direction=south;" vertex="1" parent="1">
          <mxGeometry x="775" y="140" width="10" height="35" as="geometry" />
        </mxCell>
        <mxCell id="hsobSIiCQKA7zttu_Q0H-29" value="" style="line;strokeWidth=1;rotatable=0;dashed=0;labelPosition=right;align=left;verticalAlign=middle;spacingTop=0;spacingLeft=6;points=[];portConstraint=eastwest;direction=south;" vertex="1" parent="1">
          <mxGeometry x="765" y="215" width="10" height="35" as="geometry" />
        </mxCell>
        <mxCell id="hsobSIiCQKA7zttu_Q0H-30" value="" style="line;strokeWidth=1;rotatable=0;dashed=0;labelPosition=right;align=left;verticalAlign=middle;spacingTop=0;spacingLeft=6;points=[];portConstraint=eastwest;direction=south;" vertex="1" parent="1">
          <mxGeometry x="135" y="150" width="10" height="35" as="geometry" />
        </mxCell>
        <mxCell id="hsobSIiCQKA7zttu_Q0H-31" value="" style="line;strokeWidth=1;rotatable=0;dashed=0;labelPosition=right;align=left;verticalAlign=middle;spacingTop=0;spacingLeft=6;points=[];portConstraint=eastwest;direction=south;" vertex="1" parent="1">
          <mxGeometry x="220" y="155" width="10" height="35" as="geometry" />
        </mxCell>
        <mxCell id="hsobSIiCQKA7zttu_Q0H-32" value="" style="line;strokeWidth=1;rotatable=0;dashed=0;labelPosition=right;align=left;verticalAlign=middle;spacingTop=0;spacingLeft=6;points=[];portConstraint=eastwest;direction=west;" vertex="1" parent="1">
          <mxGeometry x="100" y="175" width="35" height="10" as="geometry" />
        </mxCell>
        <mxCell id="hsobSIiCQKA7zttu_Q0H-33" value="name" style="ellipse;whiteSpace=wrap;html=1;align=center;" vertex="1" parent="1">
          <mxGeometry x="670" y="110" width="80" height="30" as="geometry" />
        </mxCell>
        <mxCell id="hsobSIiCQKA7zttu_Q0H-34" value="surname" style="ellipse;whiteSpace=wrap;html=1;align=center;" vertex="1" parent="1">
          <mxGeometry x="755" y="120" width="70" height="20" as="geometry" />
        </mxCell>
        <mxCell id="hsobSIiCQKA7zttu_Q0H-35" value="password" style="ellipse;whiteSpace=wrap;html=1;align=center;" vertex="1" parent="1">
          <mxGeometry x="740" y="250" width="80" height="30" as="geometry" />
        </mxCell>
        <mxCell id="hsobSIiCQKA7zttu_Q0H-36" value="surname" style="ellipse;whiteSpace=wrap;html=1;align=center;" vertex="1" parent="1">
          <mxGeometry x="190" y="135" width="70" height="20" as="geometry" />
        </mxCell>
        <mxCell id="hsobSIiCQKA7zttu_Q0H-37" value="name" style="ellipse;whiteSpace=wrap;html=1;align=center;" vertex="1" parent="1">
          <mxGeometry x="100" y="130" width="80" height="30" as="geometry" />
        </mxCell>
        <mxCell id="hsobSIiCQKA7zttu_Q0H-38" value="password" style="ellipse;whiteSpace=wrap;html=1;align=center;" vertex="1" parent="1">
          <mxGeometry x="30" y="157.5" width="80" height="30" as="geometry" />
        </mxCell>
        <mxCell id="hsobSIiCQKA7zttu_Q0H-39" value="&lt;u&gt;email&lt;/u&gt;" style="ellipse;whiteSpace=wrap;html=1;align=center;" vertex="1" parent="1">
          <mxGeometry x="20" y="190" width="80" height="30" as="geometry" />
        </mxCell>
        <mxCell id="hsobSIiCQKA7zttu_Q0H-40" value="" style="line;strokeWidth=1;rotatable=0;dashed=0;labelPosition=right;align=left;verticalAlign=middle;spacingTop=0;spacingLeft=6;points=[];portConstraint=eastwest;direction=west;" vertex="1" parent="1">
          <mxGeometry x="100" y="200" width="35" height="10" as="geometry" />
        </mxCell>
        <mxCell id="hsobSIiCQKA7zttu_Q0H-41" value="name" style="ellipse;whiteSpace=wrap;html=1;align=center;" vertex="1" parent="1">
          <mxGeometry x="365" y="125" width="80" height="30" as="geometry" />
        </mxCell>
        <mxCell id="hsobSIiCQKA7zttu_Q0H-42" value="course_link" style="ellipse;whiteSpace=wrap;html=1;align=center;" vertex="1" parent="1">
          <mxGeometry x="450" y="125" width="80" height="30" as="geometry" />
        </mxCell>
        <mxCell id="hsobSIiCQKA7zttu_Q0H-43" value="" style="line;strokeWidth=1;rotatable=0;dashed=0;labelPosition=right;align=left;verticalAlign=middle;spacingTop=0;spacingLeft=6;points=[];portConstraint=eastwest;direction=south;" vertex="1" parent="1">
          <mxGeometry x="410" y="152.5" width="10" height="27.5" as="geometry" />
        </mxCell>
        <mxCell id="hsobSIiCQKA7zttu_Q0H-44" value="" style="line;strokeWidth=1;rotatable=0;dashed=0;labelPosition=right;align=left;verticalAlign=middle;spacingTop=0;spacingLeft=6;points=[];portConstraint=eastwest;direction=south;" vertex="1" parent="1">
          <mxGeometry x="480" y="153.75" width="10" height="27.5" as="geometry" />
        </mxCell>
        <mxCell id="hsobSIiCQKA7zttu_Q0H-45" value="" style="line;strokeWidth=1;rotatable=0;dashed=0;labelPosition=right;align=left;verticalAlign=middle;spacingTop=0;spacingLeft=6;points=[];portConstraint=eastwest;direction=south;" vertex="1" parent="1">
          <mxGeometry x="315" y="335" width="10" height="27.5" as="geometry" />
        </mxCell>
        <mxCell id="hsobSIiCQKA7zttu_Q0H-46" value="Set(yoga,...)" style="ellipse;whiteSpace=wrap;html=1;align=center;" vertex="1" parent="1">
          <mxGeometry x="275" y="362.5" width="100" height="40" as="geometry" />
        </mxCell>
      </root>
    </mxGraphModel>
  </diagram>
</mxfile>
